<?xml version="1.0" encoding="UTF-8"?>
<svg version="1.1" xmlns="http://www.w3.org/2000/svg" width="512" height="512">
<path d="M0 0 C3.44587124 3.2321856 4.28827959 7.70086032 5.48046875 12.125 C5.69818436 12.90891113 5.91589996 13.69282227 6.14021301 14.50048828 C6.59725725 16.15346991 7.05002577 17.80763899 7.4987793 19.46289062 C8.1858528 21.99393203 8.88771051 24.52051975 9.59179688 27.046875 C10.03473487 28.65600783 10.47682118 30.2653754 10.91796875 31.875 C11.23195869 33.00639404 11.23195869 33.00639404 11.55229187 34.16064453 C12.47775149 37.59744403 13 40.41199002 13 44 C13.80686752 43.99555878 14.61373505 43.99111755 15.4450531 43.98654175 C23.07992143 43.94632943 30.7147378 43.91594703 38.34968472 43.89637566 C42.27410366 43.88597531 46.19843449 43.87188532 50.12280273 43.84912109 C53.91590799 43.82725806 57.70892892 43.81540323 61.50209236 43.81024551 C62.94324125 43.80657376 64.38438596 43.7994043 65.82549858 43.78853989 C85.94272357 43.64302405 85.94272357 43.64302405 92.3125 48.8125 C92.92738281 49.29332031 93.54226563 49.77414063 94.17578125 50.26953125 C96 52 96 52 97.62890625 54.56640625 C101.14131786 58.17140203 104.77219548 58.38237055 109.625 59.125 C110.54982178 59.28548828 111.47464355 59.44597656 112.42749023 59.61132812 C117.02388487 60.39984247 121.63197228 61.0976008 126.24609375 61.7734375 C127.05933105 61.89702637 127.87256836 62.02061523 128.71044922 62.14794922 C130.24222113 62.37722212 131.77648004 62.59062233 133.31298828 62.78564453 C137.97662461 63.47080274 140.00387121 64.41400273 143 68 C144.52125249 70.53760304 145.81726567 73.16795221 147.109375 75.828125 C147.48104797 76.57713074 147.85272095 77.32613647 148.23565674 78.09783936 C149.41470377 80.47822645 150.58246945 82.86394664 151.75 85.25 C152.55004161 86.87015711 153.350815 88.48995309 154.15234375 90.109375 C156.11006162 94.06878464 158.05768435 98.0330135 160 102 C169.26480196 98.56364673 178.43702801 95.0463829 187.5 91.1015625 C195.5181946 88.57797893 203.41436094 90.56857108 211.5 92 C212.60859375 92.19078125 213.7171875 92.3815625 214.859375 92.578125 C217.57400708 93.04616501 220.28721466 93.52140951 223 94 C223.58015448 103.5896778 221.79296792 112.52784156 219.87890625 121.85424805 C219.54302544 123.53054409 219.2080801 125.20702781 218.87399292 126.88368225 C217.97025889 131.40549114 217.05356198 135.92458244 216.13441086 140.44327903 C215.1738662 145.17694894 214.22540896 149.91303962 213.27563477 154.64888 C211.47791079 163.60339573 209.66941892 172.55570065 207.85699177 181.50725061 C205.79301245 191.70393161 203.74113496 201.90303579 201.69024086 212.10235536 C197.47356482 233.07094962 193.24179656 254.03647403 189 275 C179.5254661 274.00523174 179.5254661 274.00523174 175.33813477 273.16796875 C174.14759239 272.93267456 174.14759239 272.93267456 172.93299866 272.69262695 C171.69966042 272.44258911 171.69966042 272.44258911 170.44140625 272.1875 C169.13586037 271.92682739 169.13586037 271.92682739 167.80393982 271.66088867 C165.98260819 271.29629287 164.1616522 270.92981583 162.34106445 270.56152344 C159.54674047 269.99681514 156.75102771 269.43941018 153.95507812 268.8828125 C152.17960127 268.52647105 150.40420752 268.16971522 148.62890625 267.8125 C147.79251114 267.64580811 146.95611603 267.47911621 146.09437561 267.30737305 C140.23073477 266.11536739 140.23073477 266.11536739 138 265 C138.14824219 263.88882812 138.29648437 262.77765625 138.44921875 261.6328125 C138.79875957 256.88492745 139.04964227 252.3991099 137 248 C131.75600997 243.10016355 124.63827716 240.48970559 118 238 C119.04346712 234.51953227 120.61879059 232.10314312 122.92578125 229.36328125 C123.74852539 228.37231445 123.74852539 228.37231445 124.58789062 227.36132812 C125.73624425 225.99708922 126.90574895 224.65037439 128.09570312 223.32226562 C129.79340276 221.23294444 130.96773339 219.48841685 132 217 C131.77154019 214.71124229 131.77154019 214.71124229 130.88989258 212.40307617 C130.5940477 211.52471603 130.29820282 210.6463559 129.99339294 209.74137878 C129.66557327 208.83672379 129.3377536 207.93206879 129 207 C128.69308731 206.13864944 128.38617462 205.27729889 128.06996155 204.3898468 C127.0787803 201.66681775 126.05582375 198.9576629 125.0234375 196.25 C124.65272125 195.2700708 124.282005 194.2901416 123.90005493 193.28051758 C123.12344561 191.22953701 122.3452175 189.17916873 121.56542969 187.12939453 C120.36820086 183.98212646 119.17587084 180.83303616 117.984375 177.68359375 C117.22684306 175.68478948 116.46904037 173.6860878 115.7109375 171.6875 C115.3536557 170.74487305 114.9963739 169.80224609 114.62826538 168.83105469 C114.2976712 167.96254883 113.96707703 167.09404297 113.62646484 166.19921875 C113.3357309 165.43440186 113.04499695 164.66958496 112.74545288 163.8815918 C112.01358305 161.95522502 112.01358305 161.95522502 111 160 C107.02473176 161.96357477 107.02473176 161.96357477 104 165 C103.37166943 169.06038831 103.59035043 172.92301142 104 177 C104.99 177 105.98 177 107 177 C108.88804697 181.86782956 110.75709134 186.74238041 112.60913086 191.62402344 C113.24136511 193.28256574 113.87868654 194.93917832 114.52124023 196.59375 C115.44568839 198.97683555 116.35142513 201.36633549 117.25390625 203.7578125 C117.54342667 204.49242706 117.83294708 205.22704163 118.13124084 205.98391724 C119.75804976 210.3596849 120.4435625 213.38288813 119 218 C117.64892578 220.27001953 117.64892578 220.27001953 115.9453125 222.3828125 C115.33042969 223.15753906 114.71554687 223.93226563 114.08203125 224.73046875 C113.11330078 225.91576172 113.11330078 225.91576172 112.125 227.125 C110.8567657 228.7109334 109.58853636 230.29687076 108.3203125 231.8828125 C107.75586426 232.57777832 107.19141602 233.27274414 106.60986328 233.98876953 C106.0786084 234.65247559 105.54735352 235.31618164 105 236 C104.15477783 237.05550049 104.15477783 237.05550049 103.29248047 238.13232422 C101.81031551 239.8955533 101.81031551 239.8955533 102 242 C103.08269165 242.53741821 103.08269165 242.53741821 104.18725586 243.08569336 C107.43836933 244.70089456 110.6879506 246.3191546 113.9375 247.9375 C115.07380859 248.50146484 116.21011719 249.06542969 117.38085938 249.64648438 C119.00024414 250.45375977 119.00024414 250.45375977 120.65234375 251.27734375 C121.65257568 251.77484131 122.65280762 252.27233887 123.68334961 252.78491211 C126 254 126 254 127 255 C127.95415835 264.1046268 128.12742574 273.32105345 128.37743568 282.46785164 C128.49614822 286.70606941 128.66105395 290.93073565 128.94091797 295.16162109 C130.64791672 321.66677811 130.64791672 321.66677811 124.85302734 330.13885498 C117.77243406 337.20349081 108.83095017 341.57988389 98.79351807 342.19720459 C91.417826 341.83628542 84.70517981 339.70931943 77.75 337.375 C74.6937735 336.45919358 71.63028864 335.5719844 68.5647583 334.68789673 C66.68177689 334.13335539 64.80567061 333.55471751 62.93865967 332.94857788 C56.99689272 330.8774278 56.99689272 330.8774278 51 332 C49.59595672 333.57226813 49.59595672 333.57226813 48.59375 335.59765625 C44.55704416 341.75547126 40.07184862 346.6162352 32.73114014 348.61901855 C19.83016824 351.2116843 0.04816597 353.46250162 -11.95422363 346.93762207 C-16.39627533 343.64922484 -19.65370744 339.32766544 -22.90307617 334.90979004 C-27.93392653 328.13320949 -27.93392653 328.13320949 -35.2713623 324.42590332 C-42.61768712 323.48200196 -50.01540452 323.97043858 -57.38882446 324.32241821 C-75.08715113 325.09948989 -75.08715113 325.09948989 -80.67578125 320.19140625 C-83.77026944 316.54108854 -86.0999802 312.62468324 -87.92724609 308.20410156 C-89.33006328 305.32184541 -90.72356701 303.27834918 -93 301 C-96.31975894 299.8776075 -96.31975894 299.8776075 -100.1015625 299.453125 C-100.77923676 299.35159119 -101.45691101 299.25005737 -102.15512085 299.14544678 C-104.30938908 298.82671203 -106.4663667 298.5375288 -108.625 298.25 C-110.78948031 297.94195562 -112.95300816 297.6279636 -115.11630249 297.31170654 C-117.07301306 297.02878966 -119.03183811 296.76061417 -120.99072266 296.49316406 C-124 296 -124 296 -126 295 C-126 263.98 -126 232.96 -126 201 C-108 192 -108 192 -103 193 C-102.86766422 181.41641948 -102.82892985 169.83424342 -102.875 158.25 C-102.87997561 156.97696644 -102.87997561 156.97696644 -102.88505173 155.67821503 C-103.0073989 131.28168876 -103.79098374 108.50918398 -113.09790039 85.58447266 C-114 83 -114 83 -114 79 C-110.12315913 77.80712589 -107.08378077 77 -103 77 C-103.01160156 76.30132812 -103.02320312 75.60265625 -103.03515625 74.8828125 C-103.04417969 73.97273438 -103.05320312 73.06265625 -103.0625 72.125 C-103.07410156 71.22007812 -103.08570312 70.31515625 -103.09765625 69.3828125 C-103 67 -103 67 -102 65 C-105.465 65.495 -105.465 65.495 -109 66 C-106.78629096 60.09700413 -103.65477076 54.69600229 -100.60522461 49.19702148 C-99.56208752 47.31175452 -98.52997569 45.42071667 -97.49804688 43.52929688 C-96.83400199 42.32775522 -96.16931061 41.12657057 -95.50390625 39.92578125 C-94.90392822 38.83692627 -94.3039502 37.74807129 -93.68579102 36.6262207 C-92 34 -92 34 -89 32 C-88.49307308 33.5811292 -87.99473557 35.16501383 -87.5 36.75 C-87.2215625 37.63171875 -86.943125 38.5134375 -86.65625 39.421875 C-86 42 -86 42 -86 46 C-84.39125 45.505 -84.39125 45.505 -82.75 45 C-79 44 -79 44 -75 44 C-75.18175781 43.34402832 -75.36351562 42.68805664 -75.55078125 42.01220703 C-76.36982427 39.05052648 -77.18495898 36.08778425 -78 33.125 C-78.28617188 32.09246094 -78.57234375 31.05992188 -78.8671875 29.99609375 C-79.13789062 29.00996094 -79.40859375 28.02382812 -79.6875 27.0078125 C-79.93886719 26.09660645 -80.19023438 25.18540039 -80.44921875 24.24658203 C-81 22 -81 22 -81 20 C-71.18081632 17.23162102 -61.35836136 14.47520487 -51.53155231 11.73400784 C-46.96866232 10.46078117 -42.40700114 9.18346363 -37.84790039 7.89672852 C-33.44801264 6.65509202 -29.04522524 5.42429215 -24.64021873 4.2009449 C-22.9602297 3.73233726 -21.28132168 3.25983612 -19.60354042 2.78338432 C-17.25316751 2.11664941 -14.89933027 1.46386773 -12.54418945 0.81420898 C-11.8515097 0.6142482 -11.15882996 0.41428741 -10.44515991 0.20826721 C-6.63009353 -0.82657189 -3.78854971 -1.26260588 0 0 Z M25 86 C24.31867549 87.66072849 23.65257873 89.327767 23 91 C20.45100987 92.37657133 17.75700182 93.14061024 15 94 C10.79163301 95.33578367 8.90876149 96.82197275 6.375 100.4375 C5.80523437 101.21996094 5.23546875 102.00242187 4.6484375 102.80859375 C-0.39494331 112.57267461 -0.38418036 122.48140886 -0.1875 133.1875 C-0.17241277 134.63084527 -0.15873157 136.07420596 -0.14648438 137.51757812 C-0.11640825 141.01242341 -0.05764388 144.50507313 0 148 C-8.25 148 -16.5 148 -25 148 C-25 157.9 -25 167.8 -25 178 C-16.75 178 -8.5 178 0 178 C0 189.88 0 201.76 0 214 C5.10310241 212.46753681 10.19147853 210.91726879 15.27099609 209.3125 C16.99970499 208.77310911 18.7321806 208.24563799 20.46826172 207.73046875 C22.96631656 206.98691493 25.44760257 206.20126561 27.9296875 205.40625 C29.09538773 205.0744574 29.09538773 205.0744574 30.28463745 204.73596191 C34.38396 203.4191646 34.38396 203.4191646 36.93508911 200.15515137 C37.4837577 198.08647092 37.80700614 196.12970363 38 194 C38.07492676 193.21560547 38.14985352 192.43121094 38.22705078 191.62304688 C38.21134033 190.68041992 38.21134033 190.68041992 38.1953125 189.71875 C38.18564453 188.67460937 38.18564453 188.67460937 38.17578125 187.609375 C38.15902344 186.91328125 38.14226562 186.2171875 38.125 185.5 C38.11597656 184.77296875 38.10695312 184.0459375 38.09765625 183.296875 C38.07442241 181.5311028 38.03856683 179.76550386 38 178 C39.2375 178.061875 40.475 178.12375 41.75 178.1875 C50.72160048 178.07687314 50.72160048 178.07687314 59 175 C62.13635142 170.32993828 65.24499654 164.635219 64.85546875 158.85546875 C62.65427778 154.0811961 59.48922386 150.70032759 55 148 C49.39573845 146.90428243 43.64438331 147.47509179 38 148 C38.06888572 143.92432487 38.156854 139.84955199 38.26245117 135.7746582 C38.29568549 134.38870623 38.32372226 133.00261939 38.34643555 131.61645508 C38.38000617 129.62293157 38.43388 127.62978259 38.48828125 125.63671875 C38.51446533 124.43748779 38.54064941 123.23825684 38.56762695 122.00268555 C39 119 39 119 40.21289062 117.1171875 C42.59036565 115.63094081 44.30920017 115.56909826 47.10546875 115.48828125 C47.99129639 115.45516846 48.87712402 115.42205566 49.78979492 115.38793945 C50.9110376 115.36304443 52.03228027 115.33814941 53.1875 115.3125 C58.5396875 115.1578125 58.5396875 115.1578125 64 115 C64 104.77 64 94.54 64 84 C59.05 83.95875 54.1 83.9175 49 83.875 C47.45441406 83.85679199 45.90882813 83.83858398 44.31640625 83.81982422 C34.48848508 83.71476892 34.48848508 83.71476892 25 86 Z M103 105 C103 108.96 103 112.92 103 117 C111.57965175 119.31469806 120.15988015 121.62724303 128.74083614 123.93710136 C132.7260248 125.0099226 136.71101689 126.08346234 140.69555664 127.15869141 C144.5465423 128.19785168 148.39804824 129.23506279 152.24991035 130.27096939 C153.71356148 130.66495655 155.17702927 131.05962552 156.64030266 131.45501328 C164.06237691 133.46004871 171.47410387 135.41828624 179 137 C179.99 133.37 180.98 129.74 182 126 C171.84772943 123.26047095 161.69509895 120.52228032 151.54200077 117.78582001 C146.82803262 116.51526695 142.11419191 115.24424504 137.40063477 113.97216797 C132.85574161 112.7456275 128.31052379 111.52029727 123.76507378 110.29582214 C122.02693385 109.82736216 120.28891337 109.35845876 118.55101204 108.88911438 C116.12554558 108.23416303 113.69966742 107.58075905 111.27368164 106.92773438 C110.54791931 106.73136887 109.82215698 106.53500336 109.07440186 106.33268738 C106.07872784 105.39793039 106.07872784 105.39793039 103 105 Z M103 131 C103 134.63 103 138.26 103 142 C110.12591094 144.87045143 117.41524598 146.83054482 124.8359375 148.79296875 C126.16500236 149.1471229 127.49399078 149.50156406 128.82290649 149.85627747 C131.59074276 150.59414199 134.35928851 151.32925985 137.12841797 152.06225586 C140.68054479 153.00264515 144.23108113 153.94888461 147.78114891 154.89701366 C150.5171942 155.62725651 153.2539011 156.35499241 155.99083328 157.08190346 C157.30116615 157.43013113 158.61132508 157.77901398 159.92130661 158.12856102 C161.74424435 158.61446348 163.56814456 159.09675077 165.39208984 159.57885742 C166.42941254 159.85404709 167.46673523 160.12923676 168.53549194 160.4127655 C170.90200476 161.07726248 170.90200476 161.07726248 173 161 C173.99 157.37 174.98 153.74 176 150 C166.77807622 147.51977754 157.55543941 145.04222947 148.33187294 142.56812286 C144.04934235 141.41929674 139.76706614 140.26953984 135.48535156 139.11767578 C131.35570906 138.00675839 127.22542435 136.89825987 123.09467697 135.79145813 C121.51633814 135.36809445 119.93823542 134.94384957 118.36037064 134.51872253 C116.15573601 133.92488278 113.95029384 133.33414016 111.74462891 132.74414062 C109.85932968 132.23784119 109.85932968 132.23784119 107.9359436 131.72131348 C105.18016856 130.92047049 105.18016856 130.92047049 103 131 Z M-109 210 C-112.38140929 214.22676161 -113.12418807 218.69539523 -113 224 C-112.01459281 229.76568035 -109.33727998 233.31259275 -104.78515625 236.87890625 C-102.5656489 238.2727763 -100.61268224 238.84165562 -98 239 C-98.28875 238.34 -98.5775 237.68 -98.875 237 C-101.5716251 229.80899974 -102.35927912 223.11733187 -102.625 215.5 C-102.66367188 214.5821875 -102.70234375 213.664375 -102.7421875 212.71875 C-102.83549564 210.47935472 -102.92128185 208.23994746 -103 206 C-105.3236072 206 -107.39542388 208.58644484 -109 210 Z M0 228 C0 231.63 0 235.26 0 239 C9.9 239 19.8 239 30 239 C30 235.37 30 231.74 30 228 C20.1 228 10.2 228 0 228 Z M-108.58203125 257.5078125 C-112.14091263 261.91795369 -113.31068601 266.36881604 -113 272 C-111.97356558 277.85922983 -109.28387657 281.19696776 -104.71875 284.87109375 C-100.26724239 287.79492488 -95.11367387 287.65909574 -90 287 C-84.92844036 285.07332573 -81.02036123 281.92788307 -78.625 277.01953125 C-76.95856639 271.63486764 -77.04477084 266.15157872 -79.6875 261.125 C-83.0552575 256.57397635 -86.5078279 253.56919203 -92 252 C-98.57697284 251.25543704 -103.79611255 252.94641839 -108.58203125 257.5078125 Z M-65 252 C-65 255.63 -65 259.26 -65 263 C-61.37 263 -57.74 263 -54 263 C-54 259.37 -54 255.74 -54 252 C-57.63 252 -61.26 252 -65 252 Z M-41 252 C-41 255.63 -41 259.26 -41 263 C-17.57 263 5.86 263 30 263 C30 259.37 30 255.74 30 252 C6.57 252 -16.86 252 -41 252 Z M103 258 C103 271.53 103 285.06 103 299 C106.63 299 110.26 299 114 299 C114 285.47 114 271.94 114 258 C110.37 258 106.74 258 103 258 Z M-65 276 C-65 279.63 -65 283.26 -65 287 C-33.65 287 -2.3 287 30 287 C30 283.37 30 279.74 30 276 C-1.35 276 -32.7 276 -65 276 Z M-65 300 C-65 303.63 -65 307.26 -65 311 C-33.65 311 -2.3 311 30 311 C30 307.37 30 303.74 30 300 C-1.35 300 -32.7 300 -65 300 Z M103 312 C103 315.63 103 319.26 103 323 C106.63 323 110.26 323 114 323 C114 319.37 114 315.74 114 312 C110.37 312 106.74 312 103 312 Z " fill="#1877F2" transform="translate(207,82)"/>
<path d="M0 0 C2.31282587 3.46923881 2.42478586 4.92205575 2 9 C0.875 10.875 0.875 10.875 -1 12 C-4.65259739 12.54400387 -6.3433886 12.43774093 -9.4375 10.375 C-11 8 -11 8 -11 4.9375 C-10 2 -10 2 -8.3125 0.0625 C-5.13778084 -1.39615475 -3.30121799 -1.00471852 0 0 Z " fill="#1877F2" transform="translate(116,346)"/>
</svg>
